:FULLY-SPECIFIED
:FORCE-ALL-JOINTS-BE-3DOF
:DEGREES
1529
root -5.43183 15.3244 19.5412 -172.18 -2.20003 179.233
lfemur -43.3179 9.21734 -24.689
ltibia 81.857 -0 0
lfoot -11.3056 19.7251 0.0444702
ltoes -27.0803 0 0
rfemur -46.4421 -2.99249 15.9557
rtibia 70.5148 -0 0
rfoot -18.1317 -7.69805 -0.0452664
rtoes -21.8979 0 0
lowerback 19.322 0.751682 1.92179
upperback -1.21391 1.94258 2.77553
thorax -12.1612 0.946912 1.38606
lowerneck -3.88841 6.82002 2.51004
upperneck 4.19015 9.68564 -9.09372
head 2.65446 4.70915 -2.73227
lclavicle -1.60745e-14 5.6955e-15 2.92968e-31
lhumerus 44.3715 -63.7807 56.3103
lradius 112.351 -0 0
lwrist 18.2124 0 0
lhand -23.0751 39.7428 0.000766978
lfingers 7.12502 -0 0
lthumb 3.37062 69.6962 0.00074058
rclavicle -1.60745e-14 5.6955e-15 2.92968e-31
rhumerus -37.4033 47.2291 -79.8235
rradius 111.186 -0 0
rwrist -40.5065 0 0
rhand 5.69094 -31.4603 0.0847811
rfingers 7.12502 -0 0
rthumb 31.0245 -58.8226 0.0928116
1530
root -5.50875 15.3314 19.5704 -172.134 -5.00221 178.845
lfemur -42.545 9.30874 -24.5559
ltibia 80.6975 -0 0
lfoot -11.5262 19.5871 0.0500154
ltoes -27.5725 0 0
rfemur -46.7165 -3.45065 15.9165
rtibia 71.3004 -0 0
rfoot -17.9301 -7.85175 -0.0509107
rtoes -21.3924 0 0
lowerback 19.2385 0.713094 1.56725
upperback -1.20182 1.7982 2.76607
thorax -12.0892 0.899197 1.61834
lowerneck -3.94815 6.47404 2.24131
upperneck 4.19657 9.21002 -8.79305
head 2.63729 4.47289 -2.61825
lclavicle -1.55404e-14 5.31986e-15 3.29487e-31
lhumerus 41.1529 -62.6606 58.885
lradius 110.354 -0 0
lwrist 17.8225 0 0
lhand -23.0779 39.5583 0.000862602
lfingers 7.12502 -0 0
lthumb 3.36787 69.5117 0.000832914
rclavicle -1.55404e-14 5.31986e-15 3.29487e-31
rhumerus -37.8522 46.7444 -80.4969
rradius 111.675 -0 0
rwrist -40.6739 0 0
rhand 5.89872 -31.1811 0.0953556
rfingers 7.12502 -0 0
rthumb 31.2221 -58.5009 0.104394
1531
root -5.58952 15.3388 19.6011 -172.064 -7.94442 178.433
lfemur -41.7329 9.40279 -24.4147
ltibia 79.4798 -0 0
lfoot -11.7579 19.4422 0.0552665
ltoes -28.0895 0 0
rfemur -47.0044 -3.93187 15.8777
rtibia 72.1254 -0 0
rfoot -17.7183 -8.01318 -0.0562557
rtoes -20.8613 0 0
lowerback 19.1511 0.671998 1.19484
upperback -1.1891 1.64658 2.7561
thorax -12.0138 0.848775 1.86221
lowerneck -4.00908 6.11042 1.95969
upperneck 4.20057 8.71062 -8.47785
head 2.61875 4.22482 -2.49847
lclavicle -1.49795e-14 4.92538e-15 3.64066e-31
lhumerus 38.0181 -61.4186 61.3401
lradius 108.257 -0 0
lwrist 17.4131 0 0
lhand -23.0809 39.3646 0.000953154
lfingers 7.12502 -0 0
lthumb 3.36499 69.318 0.000920348
rclavicle -1.49795e-14 4.92538e-15 3.64066e-31
rhumerus -38.3103 46.2315 -81.1917
rradius 112.188 -0 0
rwrist -40.8498 0 0
rhand 6.11697 -30.8878 0.10537
rfingers 7.12502 -0 0
rthumb 31.4296 -58.1633 0.115358
1532
root -5.6737 15.3465 19.633 -171.967 -11.0099 177.995
lfemur -40.886 9.4987 -24.266
ltibia 78.2109 -0 0
lfoot -11.9994 19.2912 0.0601152
ltoes -28.6281 0 0
rfemur -47.3042 -4.43357 15.8398
rtibia 72.9851 -0 0
rfoot -17.4977 -8.18142 -0.0611911
rtoes -20.308 0 0
lowerback 19.0602 0.628585 0.806965
upperback -1.17582 1.48858 2.74567
thorax -11.9354 0.795889 2.11627
lowerneck -4.07062 5.73118 1.66682
upperneck 4.20179 8.19018 -8.14986
head 2.59889 3.96634 -2.3736
lclavicle -1.4395e-14 4.5143e-15 3.95993e-31
lhumerus 34.9971 -60.0619 63.6487
lradius 106.072 -0 0
lwrist 16.9864 0 0
lhand -23.084 39.1626 0.00103676
lfingers 7.12502 -0 0
lthumb 3.36198 69.1161 0.00100108
rclavicle -1.4395e-14 4.5143e-15 3.95993e-31
rhumerus -38.7738 45.6931 -81.9027
rradius 112.723 -0 0
rwrist -41.0331 0 0
rhand 6.34454 -30.5821 0.114621
rfingers 7.12502 -0 0
rthumb 31.6459 -57.8114 0.125483
1533
root -5.76083 15.3544 19.666 -171.84 -14.1819 177.532
lfemur -40.009 9.59567 -24.1107
ltibia 76.8976 -0 0
lfoot -12.2494 19.1349 0.0644633
ltoes -29.1857 0 0
rfemur -47.6144 -4.95303 15.8033
rtibia 73.875 -0 0
rfoot -17.2693 -8.35558 -0.0656169
rtoes -19.7353 0 0
lowerback 18.9665 0.583004 0.405579
upperback -1.16204 1.32505 2.73484
thorax -11.8545 0.740784 2.37915
lowerneck -4.13224 5.33826 1.36427
upperneck 4.19989 7.65151 -7.81082
head 2.57774 3.69885 -2.2443
lclavicle -1.379e-14 4.08882e-15 4.24621e-31
lhumerus 32.1102 -58.5993 65.7935
lradius 103.81 -0 0
lwrist 16.5448 0 0
lhand -23.0873 38.9536 0.00111174
lfingers 7.12502 -0 0
lthumb 3.35886 68.9071 0.00107347
rclavicle -1.379e-14 4.08882e-15 4.24621e-31
rhumerus -39.2389 45.1317 -82.6249
rradius 113.276 -0 0
rwrist -41.2227 0 0
rhand 6.58006 -30.2657 0.122914
rfingers 7.12502 -0 0
rthumb 31.8699 -57.4471 0.134563
1534
root -5.85045 15.3626 19.7 -171.68 -17.4436 177.039
lfemur -39.1064 9.69296 -23.9493
ltibia 75.5466 -0 0
lfoot -12.5065 18.974 0.0682242
ltoes -29.7591 0 0
rfemur -47.9335 -5.48757 15.7687
rtibia 74.7903 -0 0
rfoot -17.0343 -8.53475 -0.069445
rtoes -19.1463 0 0
lowerback 18.8705 0.535435 -0.00722014
upperback -1.14784 1.15683 2.72367
thorax -11.7716 0.683721 2.64945
lowerneck -4.1934 4.93382 1.05374
upperneck 4.19458 7.09744 -7.46249
head 2.55537 3.42375 -2.11123
lclavicle -1.31677e-14 3.65115e-15 4.49382e-31
lhumerus 29.3693 -57.0415 67.7652
lradius 101.483 -0 0
lwrist 16.0904 0 0
lhand -23.0906 38.7386 0.00117658
lfingers 7.12502 -0 0
lthumb 3.35566 68.6922 0.00113609
rclavicle -1.31677e-14 3.65115e-15 4.49382e-31
rhumerus -39.7021 44.55 -83.3537
rradius 113.846 -0 0
rwrist -41.4179 0 0
rhand 6.82236 -29.9402 0.130087
rfingers 7.12502 -0 0
rthumb 32.1003 -57.0723 0.142417
1535
root -5.94211 15.371 19.7348 -171.482 -20.778 176.515
lfemur -38.1827 9.78986 -23.7825
ltibia 74.1649 -0 0
lfoot -12.7695 18.8095 0.0713241
ltoes -30.3457 0 0
rfemur -48.2597 -6.03448 15.7364
rtibia 75.7264 -0 0
rfoot -16.794 -8.718 -0.0726
rtoes -18.5438 0 0
lowerback 18.7726 0.486062 -0.429378
upperback -1.13328 0.984782 2.71219
thorax -11.6871 0.624945 2.92586
lowerneck -4.25364 4.51983 0.736775
upperneck 4.18565 6.5308 -7.10658
head 2.53182 3.14244 -1.97506
lclavicle -1.25312e-14 3.20352e-15 4.69789e-31
lhumerus 26.7798 -55.4 69.5615
lradius 99.1034 -0 0
lwrist 15.6258 0 0
lhand -23.094 38.5188 0.00123003
lfingers 7.12502 -0 0
lthumb 3.35238 68.4723 0.0011877
rclavicle -1.25312e-14 3.20352e-15 4.69789e-31
rhumerus -40.1605 43.9509 -84.0849
rradius 114.428 -0 0
rwrist -41.6174 0 0
rhand 7.07022 -29.6072 0.136
rfingers 7.12502 -0 0
rthumb 32.336 -56.689 0.148891
1536
root -6.03536 15.3795 19.7702 -171.24 -24.1682 175.956
lfemur -37.2423 9.8857 -23.6113
ltibia 72.7592 -0 0
lfoot -13.0371 18.6421 0.0737026
ltoes -30.9424 0 0
rfemur -48.5917 -6.59103 15.7067
rtibia 76.6788 -0 0
rfoot -16.5495 -8.90445 -0.0750213
rtoes -17.9308 0 0
lowerback 18.6734 0.435101 -0.858713
upperback -1.11843 0.809758 2.70047
thorax -11.6014 0.564734 3.20696
lowerneck -4.31253 4.09834 0.414947
upperneck 4.17294 5.95441 -6.74481
head 2.50719 2.85633 -1.83645
lclavicle -1.18837e-14 2.74813e-15 4.85447e-31
lhumerus 24.3418 -53.6871 71.1851
lradius 96.6825 -0 0
lwrist 15.1531 0 0
lhand -23.0974 38.2951 0.00127104
lfingers 7.12502 -0 0
lthumb 3.34905 68.2487 0.00122729
rclavicle -1.18837e-14 2.74813e-15 4.85447e-31
rhumerus -40.6113 43.3371 -84.8146
rradius 115.021 -0 0
rwrist -41.8205 0 0
rhand 7.32242 -29.2685 0.140537
rfingers 7.12502 -0 0
rthumb 32.5758 -56.299 0.153859
1537
root -6.12974 15.3882 19.806 -170.951 -27.5972 175.357
lfemur -36.29 9.97988 -23.4363
ltibia 71.3365 -0 0
lfoot -13.3079 18.4727 0.0753142
ltoes -31.5463 0 0
rfemur -48.9278 -7.15452 15.6799
rtibia 77.6427 -0 0
rfoot -16.302 -9.09319 -0.0766616
rtoes -17.3104 0 0
lowerback 18.5734 0.382765 -1.29317
upperback -1.10337 0.632607 2.68857
thorax -11.5149 0.503362 3.49139
lowerneck -4.36969 3.6714 0.0898106
upperneck 4.15637 5.3711 -6.37889
head 2.48156 2.56676 -1.69605
lclavicle -1.12283e-14 2.2872e-15 4.96055e-31
lhumerus 22.0522 -51.9156 72.6423
lradius 94.2321 -0 0
lwrist 14.6747 0 0
lhand -23.1009 38.0686 0.00129882
lfingers 7.12502 -0 0
lthumb 3.34567 68.0223 0.00125412
rclavicle -1.12283e-14 2.2872e-15 4.96055e-31
rhumerus -41.0522 42.7118 -85.5389
rradius 115.62 -0 0
rwrist -42.0259 0 0
rhand 7.5777 -28.9256 0.14361
rfingers 7.12502 -0 0
rthumb 32.8186 -55.9042 0.157225
1538
root -6.22481 15.3969 19.842 -170.608 -31.0478 174.713
lfemur -35.3303 10.0718 -23.2584
ltibia 69.9035 -0 0
lfoot -13.5808 18.302 0.0761277
ltoes -32.1546 0 0
rfemur -49.2665 -7.72221 15.6562
rtibia 78.6136 -0 0
rfoot -16.0527 -9.28329 -0.0774897
rtoes -16.6856 0 0
lowerback 18.4731 0.329287 -1.73067
upperback -1.08816 0.454182 2.67653
thorax -11.4282 0.441115 3.77778
lowerneck -4.42479 3.24106 -0.23709
upperneck 4.13592 4.78371 -6.01048
head 2.45503 2.27518 -1.55454
lclavicle -1.05682e-14 1.82296e-15 5.0141e-31
lhumerus 19.9052 -50.0984 73.9417
lradius 91.7641 -0 0
lwrist 14.1928 0 0
lhand -23.1044 37.8406 0.00131285
lfingers 7.12502 -0 0
lthumb 3.34227 67.7943 0.00126766
rclavicle -1.05682e-14 1.82296e-15 5.0141e-31
rhumerus -41.481 42.0779 -86.2546
rradius 116.224 -0 0
rwrist -42.2329 0 0
rhand 7.83482 -28.5803 0.145162
rfingers 7.12502 -0 0
rthumb 33.0631 -55.5066 0.158924
